<?xml version="1.0" encoding="utf-8"?>
<!-- Generator: Adobe Illustrator 24.1.1, SVG Export Plug-In . SVG Version: 6.00 Build 0)  -->
<svg version="1.1" id="Capa_1" xmlns="http://www.w3.org/2000/svg" xmlns:xlink="http://www.w3.org/1999/xlink" x="0px" y="0px"
	 viewBox="0 0 300 300" style="enable-background:new 0 0 300 300;" xml:space="preserve">
<style type="text/css">
	.st0{fill:#B2BEB5;stroke:#000000;stroke-width:2;stroke-miterlimit:10;}
	.st1{fill:#FFEB00;stroke:#1D1D1B;stroke-width:2;stroke-miterlimit:10;}
</style>
<path class="st0" d="M169.9,257.7h-41c-7.7,0-14-6.3-14-14v-8.9c0-7.7,6.3-14,14-14h41c7.7,0,14,6.3,14,14v8.9
	C183.9,251.4,177.6,257.7,169.9,257.7z"/>
<path class="st1" d="M118.7,215.7c0,0,30.4-3.2,61.5,0l4.9-43.2c0,0,0-9.4,8.2-20.3c0,0,45.4-41.7,0-92.6c0,0-40.8-37.5-86.2,0
	c0,0-48.9,39.5,0,95.6c0,0,5.9,5.4,6.2,16.1L118.7,215.7z"/>
</svg>
