<?xml version="1.0" encoding="utf-8"?>
<!-- Generator: Adobe Illustrator 24.1.1, SVG Export Plug-In . SVG Version: 6.00 Build 0)  -->
<svg version="1.1" id="Capa_1" xmlns="http://www.w3.org/2000/svg" xmlns:xlink="http://www.w3.org/1999/xlink" x="0px" y="0px"
	 viewBox="0 0 1920 1920" style="enable-background:new 0 0 1920 1920;" xml:space="preserve">
<style type="text/css">
	.st0{fill:#FF0000;}
</style>
<g>
	<path class="st0" d="M953.2,1515.6c87-191.3,546-348.6,547.4-686.5c1.4-330.2-456-405.2-539.7-92.9
		c-77.6-313.7-536.4-246.6-541.5,83.6C414.1,1157.7,869.9,1322.9,953.2,1515.6z"/>
	<path d="M953,1528.3c100-196.3,628.6-357.4,629.9-704.3c1.2-339.1-525.9-416.5-622-95.9c-89.8-322.2-618.4-253.8-623.8,85.3
		C331.5,1160.2,857,1330.3,953,1528.3z M419.3,819.9c5.1-330.2,463.8-397.3,541.5-83.6c83.7-312.3,541.1-237.3,539.7,92.9
		c-1.4,337.9-460.4,495.2-547.4,686.5C869.9,1322.9,414.1,1157.7,419.3,819.9z"/>
</g>
</svg>
