<svg xmlns="http://www.w3.org/2000/svg" viewBox="0 0 200.03 237.58"><defs><style>.cls-1{fill:#757575;}.cls-1,.cls-2{stroke:#000;stroke-miterlimit:10;stroke-width:2px;}.cls-2{fill:#e86100;}</style></defs><g id="Capa_2" data-name="Capa 2"><g id="Capa_2-2" data-name="Capa 2"><path class="cls-1" d="M104.81,52.53h-.31c-1.6,0-3.18.08-4.76.18-1.78,0-3.72.07-5.77.07,4.49,0,8.43-.09,11.61-.23l-.58,0Z"/><path class="cls-1" d="M98,30.52a5.24,5.24,0,0,0,1,0c-2.23-.15-91-6.28-96.95-29,0,.85.14,1.84.26,2.92C14.78,25,98,30.52,98,30.52Z"/><path class="cls-1" d="M123,123.52c1.45.1,25.38-1.31,42-26,1.49-2.22,13.1-21,5-39-13.55-25.59-46.29-28.3-62.13-28.24,16.18.06,47.86,3.18,61.13,28.24,5.75,12.76.44,29.64-3,37-6.85-14.18-17.94-27.15-31.82-35,5.8,3.5,10,7.77,10.82,12a19.46,19.46,0,0,1-1,12.1c-6.72,14.93-29.73,20.68-56.78,21.18h0a148.21,148.21,0,0,1,4.61,21.44L148,236.52h52S170,235.52,123,123.52Z"/><path class="cls-1" d="M54.25,234.61c8-3,18.6-10.52,26.42-29.09C74,218.57,64.91,228.73,54.25,234.61Z"/><path class="cls-1" d="M43.49,236.56a27.19,27.19,0,0,0,9.78-1.6A27.4,27.4,0,0,1,43.49,236.56Z"/><polygon class="cls-2" points="91.88 127.24 91.88 127.24 91 125.52 91.88 127.24"/><path class="cls-2" d="M87.26,105.8q-3.84.08-7.79,0Q83.42,105.88,87.26,105.8Z"/><path class="cls-2" d="M87.26,105.8q-3.84.08-7.79,0H78.8c-1,0-2.07,0-3.11-.08l-.92,0c-1.25,0-2.51-.09-3.77-.16,0,0-4,103-32,110,0,0-11,8-34-16,0,0-3,33,38,37h.23l.23,0h0a27.4,27.4,0,0,0,9.78-1.6l1-.35h0c10.66-5.88,19.71-16,26.42-29.09h0c.29-.7.57-1.41.86-2.13l.21-.55c.28-.73.56-1.47.83-2.23a1,1,0,0,0,.05-.16c.26-.72.51-1.46.76-2.21.06-.19.13-.39.19-.59.26-.8.52-1.61.76-2.44l.09-.31q.35-1.14.66-2.31l.18-.64c.23-.87.46-1.75.68-2.66,0-.14.07-.28.11-.43.19-.8.38-1.63.57-2.46l.15-.67c.21-.94.41-1.91.61-2.89,0-.18.07-.37.1-.56.17-.86.33-1.74.49-2.63l.12-.69c.18-1,.36-2.07.52-3.14,0-.22.07-.44.1-.66.14-.94.28-1.89.41-2.85l.09-.69c.15-1.11.29-2.25.42-3.4l.09-.77c.11-1,.21-2,.32-3.1l.06-.67c.11-1.2.22-2.43.31-3.68,0-.28,0-.57.07-.86.08-1.12.16-2.25.23-3.4l0-.61c.08-1.3.14-2.63.2-4,0-.32,0-.65,0-1,0-1.24.09-2.49.13-3.76,0-.17,0-.33,0-.49,0-1.41.06-2.84.07-4.29,0-.35,0-.7,0-1.05,0-1.39,0-2.79,0-4.22v-.31c0-1.51,0-3-.06-4.6,0-.38,0-.76,0-1.15,0-1.58-.08-3.17-.13-4.8l.88,1.72a148.21,148.21,0,0,0-4.61-21.44Z"/><path class="cls-2" d="M54.25,234.61l-1,.35Z"/><path class="cls-2" d="M105.58,52.54c.63,0,1.26,0,1.89.06a58.88,58.88,0,0,1,26.71,7.87A57.78,57.78,0,0,0,106,52.52Z"/><path class="cls-2" d="M11.87,28.15A46.19,46.19,0,0,1,2.26,4.44,10.85,10.85,0,0,1,1,1.52c.35,5.62,1.9,16.75,9.87,26.63C16,34.52,22.51,38.71,32,42.52c21.41,8.6,45.6,10.26,62,10.25C77.62,52.71,54,51,33,42.52,23.51,38.71,17,34.52,11.87,28.15Z"/><path class="cls-2" d="M107.87,30.28c-4.25,0-7.42.18-8.92.24h0C99.28,30.62,102.66,30.3,107.87,30.28Z"/><path class="cls-2" d="M166,95.52c3.44-7.36,8.75-24.24,3-37-13.27-25.06-44.95-28.18-61.13-28.24-5.21,0-8.59.34-8.87.24h0a5.24,5.24,0,0,1-1,0S14.78,25,2.26,4.44a46.19,46.19,0,0,0,9.61,23.71C17,34.52,23.51,38.71,33,42.52,54,51,77.62,52.71,94,52.77c2,0,4,0,5.77-.07,1.58-.1,3.16-.18,4.76-.18h.5l.58,0,.42,0a57.78,57.78,0,0,1,28.18,7.95C148.06,68.37,159.15,81.34,166,95.52Z"/></g></g></svg>