<svg xmlns="http://www.w3.org/2000/svg" viewBox="0 0 200.66 236.52"><defs><style>.cls-1{fill:gray;}.cls-1,.cls-2,.cls-3{stroke:#000;stroke-miterlimit:10;stroke-width:2px;}.cls-2{fill:#e86100;}.cls-3{fill:#ff7800;}</style></defs><g id="Capa_2" data-name="Capa 2"><g id="Capa_2-2" data-name="Capa 2"><path class="cls-1" d="M123.63,122.52c1.46.1,25.38-1.31,42-26,1.5-2.22-16.94-29.15-30.82-37,5.81,3.5,10,7.77,10.82,12a19.46,19.46,0,0,1-1,12.1C138,98.55,114.94,104.3,87.9,104.8h0c2,6.81,5.73,13.72,8.73,20.72l52,110h52S170.63,234.52,123.63,122.52Z"/><path class="cls-2" d="M139.5,59.28c-4.25,0-7.42.18-8.92.24h0C130.91,59.62,134.3,59.3,139.5,59.28Z"/><path class="cls-3" d="M70.63,49.52c-16.35-.06-17,1.43-38-7-9.49-3.81-16-8-21.12-14.37A46.1,46.1,0,0,1,1.9,4.44C14.41,25,97.63,30.52,97.63,30.52a5.24,5.24,0,0,0,1,0h0c.28.1,3.67-.22,8.87-.24,16.19.06,47.86,3.18,61.13,28.24,5.76,12.76.45,29.64-3,37-6.85-14.18-17.94-27.15-31.82-35-7.75-4.67-32.45-8.95-42.18-8.95l-3,60.63c-2,14.37,1,115.37-45.52,122.41h0l-.23,0h-.24c-50,6-41-62-41-62,13,35,32,37,32,37,42,4,38-160,38-160Z"/></g></g></svg>